<svg width="38" height="17" viewBox="0 0 38 17" fill="none" xmlns="http://www.w3.org/2000/svg">
<path d="M3.31195 16.344C2.31995 16.344 1.51995 16 0.911949 15.312C0.303949 14.608 -5.06639e-05 13.48 -5.06639e-05 11.928C-5.06639e-05 10.936 0.111949 9.944 0.335949 8.952C0.575949 7.944 0.903949 6.992 1.31995 6.096C1.75195 5.184 2.24795 4.376 2.80795 3.672C3.38395 2.968 4.01595 2.416 4.70395 2.016C5.39195 1.6 6.10395 1.392 6.83995 1.392C8.08795 1.392 9.06395 1.728 9.76795 2.4C10.4719 3.072 10.8239 3.928 10.8239 4.968C10.8239 5.768 10.5999 6.496 10.1519 7.152C9.71995 7.792 9.12795 8.368 8.37595 8.88C7.62395 9.392 6.78395 9.856 5.85595 10.272C4.92795 10.688 3.97595 11.064 2.99995 11.4C2.91995 11.976 2.87995 12.488 2.87995 12.936C2.87995 13.208 3.03195 13.344 3.33595 13.344C4.05595 13.344 4.82395 13.232 5.63995 13.008C6.47195 12.768 7.31195 12.464 8.15995 12.096C9.00795 11.712 9.82395 11.32 10.6079 10.92C11.392 10.504 12.104 10.112 12.7439 9.744C13.3999 9.36 13.9359 9.056 14.352 8.832C14.784 8.592 15.064 8.472 15.1919 8.472C15.5439 8.472 15.7999 8.576 15.9599 8.784C16.12 8.992 16.2 9.216 16.2 9.456C16.2 9.568 15.984 9.816 15.552 10.2C15.136 10.584 14.5599 11.04 13.8239 11.568C13.1039 12.08 12.2879 12.616 11.3759 13.176C10.4799 13.72 9.54395 14.24 8.56795 14.736C7.60795 15.216 6.67195 15.6 5.75995 15.888C4.86395 16.192 4.04795 16.344 3.31195 16.344ZM3.40795 9.264C4.06395 8.88 4.71195 8.48 5.35195 8.064C6.00795 7.632 6.55195 7.152 6.98395 6.624C7.41595 6.08 7.63195 5.448 7.63195 4.728C7.63195 4.52 7.57595 4.384 7.46395 4.32C7.35195 4.24 7.19195 4.2 6.98395 4.2C6.42395 4.2 5.91195 4.448 5.44795 4.944C4.99995 5.44 4.59995 6.08 4.24795 6.864C3.91195 7.632 3.63195 8.432 3.40795 9.264ZM35.9576 14.976C35.8616 15.84 35.3496 16.272 34.4216 16.272C33.9416 16.272 33.5576 16.128 33.2696 15.84C32.9976 15.552 32.8616 15.136 32.8616 14.592C32.8616 13.664 32.9016 12.672 32.9816 11.616C33.0776 10.544 33.1896 9.464 33.3176 8.376C33.4616 7.288 33.5976 6.248 33.7256 5.256C33.1496 6.088 32.5416 6.944 31.9016 7.824C31.2616 8.704 30.6216 9.56 29.9816 10.392C29.3416 11.224 28.7256 11.976 28.1336 12.648C27.5576 13.304 27.0296 13.832 26.5496 14.232C26.0696 14.616 25.6696 14.808 25.3496 14.808C24.5816 14.808 23.9176 14.528 23.3576 13.968C22.7976 13.392 22.5176 12.664 22.5176 11.784C22.5176 11.48 22.5496 11.072 22.6136 10.56C22.6776 10.032 22.7576 9.472 22.8536 8.88C22.9496 8.288 23.0296 7.728 23.0936 7.2C23.1576 6.672 23.1896 6.256 23.1896 5.952C23.1896 5.952 23.1896 5.936 23.1896 5.904C23.2056 5.824 23.1896 5.784 23.1416 5.784C23.0776 5.784 22.9016 6 22.6136 6.432C22.3256 6.848 21.9736 7.392 21.5576 8.064C21.1416 8.736 20.7016 9.44 20.2376 10.176C19.7896 10.912 19.3656 11.6 18.9656 12.24C18.5816 12.88 18.2616 13.376 18.0056 13.728C17.6536 14.272 17.3256 14.616 17.0216 14.76C16.7176 14.904 16.3656 14.976 15.9656 14.976C15.4056 14.976 14.9656 14.792 14.6456 14.424C14.3416 14.04 14.1896 13.504 14.1896 12.816C14.1896 12.528 14.2376 12.08 14.3336 11.472C14.4456 10.864 14.5816 10.192 14.7416 9.456C14.9016 8.704 15.0616 7.976 15.2216 7.272C15.3976 6.552 15.5496 5.944 15.6776 5.448C15.8216 4.792 16.0216 4.336 16.2776 4.08C16.5496 3.808 16.8936 3.672 17.3096 3.672C18.2856 3.672 18.7736 4.152 18.7736 5.112C18.7736 5.288 18.7176 5.576 18.6056 5.976C18.4936 6.376 18.3576 6.84 18.1976 7.368C18.0376 7.896 17.8696 8.44 17.6936 9C17.5176 9.544 17.3736 10.056 17.2616 10.536C17.6456 9.864 18.0616 9.144 18.5096 8.376C18.9576 7.608 19.4136 6.856 19.8776 6.12C20.3576 5.384 20.8296 4.712 21.2936 4.104C21.7736 3.496 22.2456 3.016 22.7096 2.664C23.1736 2.296 23.6136 2.112 24.0296 2.112C24.4456 2.112 24.8536 2.264 25.2536 2.568C25.6536 2.856 25.9816 3.232 26.2376 3.696C26.5096 4.144 26.6456 4.624 26.6456 5.136C26.6456 5.616 26.5816 6.192 26.4536 6.864C26.3256 7.536 26.1816 8.24 26.0216 8.976C25.8616 9.712 25.7496 10.432 25.6856 11.136C26.2296 10.528 26.8056 9.84 27.4136 9.072C28.0216 8.288 28.6456 7.48 29.2856 6.648C29.9256 5.816 30.5496 5.008 31.1576 4.224C31.7816 3.44 32.3576 2.728 32.8856 2.088C33.4296 1.448 33.9096 0.943999 34.3256 0.575999C34.7416 0.191999 35.0616 -4.76837e-07 35.2856 -4.76837e-07C35.9416 -4.76837e-07 36.4536 0.176 36.8216 0.528C37.2056 0.863999 37.3976 1.456 37.3976 2.304C37.3976 2.832 37.3576 3.52 37.2776 4.368C37.2136 5.216 37.1176 6.136 36.9896 7.128C36.8776 8.104 36.7496 9.096 36.6056 10.104C36.4776 11.096 36.3576 12.016 36.2456 12.864C36.1336 13.712 36.0376 14.416 35.9576 14.976Z" fill="black"/>
</svg>
